<?xml version="1.0" encoding="iso-8859-1"?>
<!-- Generator: Adobe Illustrator 19.0.0, SVG Export Plug-In . SVG Version: 6.00 Build 0)  -->
<svg version="1.1" id="Capa_1" xmlns="http://www.w3.org/2000/svg" xmlns:xlink="http://www.w3.org/1999/xlink" x="0px" y="0px"
	 viewBox="0 0 511.998 511.998" style="enable-background:new 0 0 511.998 511.998;" xml:space="preserve">
<g>
	<g>
		<path d="M354.86,407.134c21.362-23.721,34.384-55.093,34.384-89.453c0-29.815-19.884-87.336-60.789-175.85
			C298.924,77.929,255.434,0,255.434,0s-43.49,77.929-73.021,141.832c-40.905,88.513-60.789,146.034-60.789,175.85
			c0,34.431,13.074,65.863,34.515,89.6l-103.1,15.268v89.448l164.94-21.406c7.989,12.229,21.789,20.333,37.455,20.333
			c15.724,0,29.568-8.164,37.542-20.469l165.982,21.542V422.55L354.86,407.134z M151.625,317.681
			c-0.002-44.85,65.987-183.33,103.809-257.359c37.821,74.029,103.811,212.509,103.811,257.359c0,25.622-9.336,49.102-24.777,67.228
			c0.763-4.434,1.183-8.984,1.183-13.633c0-6.383,0-25.81-33.991-99.364c-16.287-35.242-32.805-66.476-32.97-66.787l-13.255-25.022
			l-13.255,25.022c-0.165,0.311-16.683,31.545-32.97,66.787c-33.991,73.554-33.991,92.98-33.991,99.364
			c0,4.649,0.42,9.199,1.183,13.633C160.96,366.783,151.625,343.303,151.625,317.681z M210.999,461.245L83.038,477.852v-29.417
			l104.521-15.479c8.824,5.216,18.291,9.454,28.258,12.549C213.297,450.308,211.623,455.619,210.999,461.245z M255.434,480.925
			c-8.115,0-14.717-6.602-14.717-14.716s6.602-14.716,14.717-14.716s14.717,6.602,14.717,14.716S263.549,480.925,255.434,480.925z
			 M284.297,412.331c-2.932-10.517-9.696-24.512-15.608-35.673l-13.255-25.022l-13.255,25.022
			c-5.912,11.161-12.677,25.156-15.608,35.673c-12.901-9.098-21.353-24.103-21.353-41.055c0-19.583,27.01-79.928,50.216-126.319
			c23.206,46.391,50.216,106.737,50.216,126.319C305.649,388.228,297.198,403.233,284.297,412.331z M295.049,445.506
			c10.052-3.122,19.596-7.406,28.484-12.683l105.424,15.612v29.417l-129.108-16.755
			C299.212,455.526,297.547,450.266,295.049,445.506z"/>
	</g>
</svg>
